{"title":"Mahabharat Aur Barbareek (2013) 1CD DVDRip XviD Hindi Movie","uid":8269982,"size":748127818,"categoryP":"video","categoryS":"movies","magnet":"?xt=urn:btih:40ea6c6b705c3e3040b4f6c71eb0b409b1e8fec4&amp;dn=Mahabharat+Aur+Barbareek+%282013%29+1CD+DVDRip+XviD+Hindi+Movie&amp;tr=udp%3A%2F%2Ftracker.openbittorrent.com%3A80&amp;tr=udp%3A%2F%2Fopen.demonii.com%3A1337&amp;tr=udp%3A%2F%2Ftracker.coppersurfer.tk%3A6969&amp;tr=udp%3A%2F%2Fexodus.desync.com%3A6969","seeders":1,"leechers":0,"uploader":"shaan666","files":-1,"time":1363596402,"description":"[B]Mahabharat Aur Barbareek (2013)[/B]\n\n\n\n &lt;a href=&quot;\nhttp://nimga.com/m/9FZwN.jpg&quot; rel=&quot;nofollow&quot; target=&quot;_NEW&quot;&gt;\nhttp://nimga.com/m/9FZwN.jpg&lt;/a&gt;\n\n\n\n\n[B]INFO[/B]\n\n[CODE]Rip Information\n\nCode  Code:\n\nFormat                                   : AVI\nFormat/Info                              : Audio Video Interleave\nFile size                                : 704 MiB\nDuration                                 : 2h 17mn\nOverall bit rate                         : 718 Kbps\n\nVideo\n\nCode  Code:\n\nFormat                                   : MPEG-4 Visual\nFormat profile                           : Advanced Simple@L5\nFormat settings, BVOP                    : 3\nFormat settings, QPel                    : No\nFormat settings, GMC                     : No warppoints\nFormat settings, Matrix                  : Default (MPEG)\nCodec ID                                 : XVID\nCodec ID/Hint                            : XviD\nDuration                                 : 2h 17mn\nBit rate                                 : 582 Kbps\nWidth                                    : 688 pixels\nHeight                                   : 288 pixels\nDisplay aspect ratio                     : 2.40:1\nFrame rate                               : 25.000 fps\nColor space                              : YUV\nChroma subsampling                       : 4:2:0\nBit depth                                : 8 bits\nScan type                                : Progressive\nCompression mode                         : Lossy\nBits/(Pixel*Frame)                       : 0.117\nStream size                              : 570 MiB (81%)\nWriting library                          : XviD 1.2.1 (UTC 2008-12\n\nAudio\n\nCode  Code:\n\nFormat                                   : AC-3\nFormat/Info                              : Audio Coding 3\nMode extension                           : CM (complete main)\nFormat settings, Endianness              : Big\nCodec ID                                 : 2000\nDuration                                 : 2h 17mn\nBit rate mode                            : Constant\nBit rate                                 : 128 Kbps\nChannel(s)                               : 2 channels\nChannel positions                        : Front: L R\nSampling rate                            : 48.0 KHz\nBit depth                                : 16 bits\nCompression mode                         : Lossy\nStream size                              : 125 MiB (18%)\nAlignment                                : Aligned on interleaves\nInterleave, duration                     : 64 ms (1.60 video frames)\nTitle                                    : K@rtik\n\n[/CODE]\n\n\n\n\n[B]SCREEN SHOTS[/B]\n &lt;a href=&quot;\nhttp://nimga.com/m/w9Eo9.png&quot; rel=&quot;nofollow&quot; target=&quot;_NEW&quot;&gt;\nhttp://nimga.com/m/w9Eo9.png&lt;/a&gt;\n &lt;a href=&quot;\nhttp://nimga.com/m/nTLpv.png&quot; rel=&quot;nofollow&quot; target=&quot;_NEW&quot;&gt;\nhttp://nimga.com/m/nTLpv.png&lt;/a&gt;\n &lt;a href=&quot;\nhttp://nimga.com/m/7g57k.png&quot; rel=&quot;nofollow&quot; target=&quot;_NEW&quot;&gt;\nhttp://nimga.com/m/7g57k.png&lt;/a&gt;\n &lt;a href=&quot;\nhttp://nimga.com/m/p2qNl.png&quot; rel=&quot;nofollow&quot; target=&quot;_NEW&quot;&gt;\nhttp://nimga.com/m/p2qNl.png&lt;/a&gt;\n &lt;a href=&quot;\nhttp://nimga.com/m/Nwknd.png&quot; rel=&quot;nofollow&quot; target=&quot;_NEW&quot;&gt;\nhttp://nimga.com/m/Nwknd.png&lt;/a&gt;\n &lt;a href=&quot;\nhttp://nimga.com/m/GL4Pi.png&quot; rel=&quot;nofollow&quot; target=&quot;_NEW&quot;&gt;\nhttp://nimga.com/m/GL4Pi.png&lt;/a&gt;\n &lt;a href=&quot;\nhttp://nimga.com/m/IWF8H.png&quot; rel=&quot;nofollow&quot; target=&quot;_NEW&quot;&gt;\nhttp://nimga.com/m/IWF8H.png&lt;/a&gt;\n &lt;a href=&quot;\nhttp://nimga.com/m/Ze6ea.png&quot; rel=&quot;nofollow&quot; target=&quot;_NEW&quot;&gt;\nhttp://nimga.com/m/Ze6ea.png&lt;/a&gt;\n &lt;a href=&quot;\nhttp://nimga.com/m/B8lwk.png&quot; rel=&quot;nofollow&quot; target=&quot;_NEW&quot;&gt;\nhttp://nimga.com/m/B8lwk.png&lt;/a&gt;\n &lt;a href=&quot;\nhttp://nimga.com/m/2heOa.png&quot; rel=&quot;nofollow&quot; target=&quot;_NEW&quot;&gt;\nhttp://nimga.com/m/2heOa.png&lt;/a&gt;\n &lt;a href=&quot;\nhttp://nimga.com/m/N6dAC.png&quot; rel=&quot;nofollow&quot; target=&quot;_NEW&quot;&gt;\nhttp://nimga.com/m/N6dAC.png&lt;/a&gt;\n &lt;a href=&quot;\nhttp://nimga.com/m/D9tPz.png&quot; rel=&quot;nofollow&quot; target=&quot;_NEW&quot;&gt;\nhttp://nimga.com/m/D9tPz.png&lt;/a&gt;\n &lt;a href=&quot;\nhttp://nimga.com/m/fcfeB.png&quot; rel=&quot;nofollow&quot; target=&quot;_NEW&quot;&gt;\nhttp://nimga.com/m/fcfeB.png&lt;/a&gt;","torrent":{"xt":"urn:btih:40ea6c6b705c3e3040b4f6c71eb0b409b1e8fec4","amp;dn":"Mahabharat+Aur+Barbareek+%282013%29+1CD+DVDRip+XviD+Hindi+Movie","amp;tr":["udp%3A%2F%2Ftracker.openbittorrent.com%3A80","udp%3A%2F%2Fopen.demonii.com%3A1337","udp%3A%2F%2Ftracker.coppersurfer.tk%3A6969","udp%3A%2F%2Fexodus.desync.com%3A6969"],"infoHash":"40ea6c6b705c3e3040b4f6c71eb0b409b1e8fec4","infoHashBuffer":{"type":"Buffer","data":[64,234,108,107,112,92,62,48,64,180,246,199,30,176,180,9,177,232,254,196]},"announce":[],"urlList":[]}}